<svg xmlns="http://www.w3.org/2000/svg" data-name="Layer 1" viewBox="0 0 512 512"><path fill="#686f87" d="M493.65,216.21l-64.32,16.67a10,10,0,0,1-11.48-5.26l-21.13-42.81-1.42,14.84a1463.41,1463.41,0,0,0,1,288.69A666.29,666.29,0,0,1,256,503.28c-3.36,0-6.73,0-10.09-.08q-22.24-.33-44.42-2.16l-.43,0q-22.42-1.86-44.72-5.23-19.93-3-39.69-7.24l-1-.2.14-1.37q6.42-62.57,7.39-125.44.14-8.61.18-17.22v-1.83q0-8.75-.06-17.48c0-3.28-.08-6.57-.13-9.85q-.12-8-.35-15.91-1.35-49.17-6-98.22l-1.55-16.21L94.15,227.62a10,10,0,0,1-11.48,5.26L18.35,216.21a10,10,0,0,1-6.83-13.27l37.89-98.47A77.56,77.56,0,0,1,81.74,65.86L194,16.12l3-.7a263.65,263.65,0,0,1,118.12,0l3,.7L430.26,65.86a77.56,77.56,0,0,1,32.33,38.61l37.89,98.47A10,10,0,0,1,493.65,216.21Z"/><path fill="#5a6075" d="M493.65 216.21l-2.83.73L447.59 104.47a77.56 77.56 0 0 0-32.33-38.61L303 16.12l-3-.7A263.65 263.65 0 0 0 248.5 8.83q3.75-.11 7.5-.11a264 264 0 0 1 59.06 6.7l3 .7L430.26 65.86a77.56 77.56 0 0 1 32.33 38.61l37.88 98.47A10 10 0 0 1 493.65 216.21zM396.31 488.34q-7.28 1.56-14.58 3c-9.08-88.44-10.5-180.47-3.41-269.06a56.77 56.77 0 0 1 5.62-20.48 56.15 56.15 0 0 1 12.78-17l-2.38 25.57A1464.15 1464.15 0 0 0 396.31 488.34z"/><path fill="#5a6075" d="M317.67,29.45c0,26.88-27.61,48.67-61.67,48.67s-61.67-21.79-61.67-48.67a39.08,39.08,0,0,1,2.61-14,263.65,263.65,0,0,1,118.12,0A39.08,39.08,0,0,1,317.67,29.45Z"/><path fill="#555c72" d="M317.67,29.45c0,26.88-27.61,48.67-61.67,48.67-2.54,0-5-.14-7.5-.37,30.52-2.92,54.17-23.43,54.17-48.3a58.47,58.47,0,0,0-3.42-17.15q7.94,1.32,15.81,3.12A39.08,39.08,0,0,1,317.67,29.45Z"/><path fill="#fee867" d="M246.58,484.53q0,9.45-.67,18.67-22.24-.33-44.42-2.16l-.43,0q-22.42-1.86-44.72-5.23-19.93-3-39.69-7.24l-1-.2.14-1.37q6.42-62.57,7.39-125.44.14-8.61.18-17.22v-1.83q0-8.75-.06-17.48c0-3.28-.08-6.57-.13-9.85q-.12-8-.35-15.91C192,305.94,246.58,386.33,246.58,484.53Z"/><path fill="#fee64f" d="M122.86,299.24c0,.89,0,1.79.07,2.68,61.83,16,108.65,91.67,108.65,182.61q0,9.24-.64,18.26c5,.18,10,.34,15,.41q.68-9.21.67-18.67C246.58,386.33,192,305.94,122.86,299.24Z"/><path fill="#63cbe8" d="M201.58,494.3c0,2.26,0,4.5-.09,6.74l-.43,0q-22.42-1.86-44.72-5.23-19.93-3-39.69-7.24,5.67-58.5,6.57-117.24c0-3.19.09-6.39.12-9.58q.09-8.7.06-17.41v-1.83q0-8.78-.19-17.56l.13.08C169.48,354.16,201.58,419,201.58,494.3Z"/><path fill="#67b2e3" d="M123.34,325l-.13-.08q.09,5.64.14,11.27c37.94,32.72,63.23,91.29,63.23,158.11,0,1.79,0,3.55-.07,5.32,4.85.51,9.7,1,14.55,1.39l.43,0c.06-2.24.09-4.48.09-6.74C201.58,419,169.48,354.16,123.34,325Z"/><path fill="#ef3f3c" d="M156.58,484.53q0,5.67-.24,11.25-19.93-3-39.69-7.24l-1-.2.14-1.37q6.42-62.57,7.39-125.44l.12.19C144,394.46,156.58,437.45,156.58,484.53Z"/><path fill="#ee2e2c" d="M123.34,361.72l-.12-.19q-.21,13.61-.69,27.2c12.09,28,19.05,60.75,19.05,95.8,0,3-.06,5.89-.16,8.81,5,.86,9.94,1.69,14.92,2.44q.24-5.58.24-11.25C156.58,437.45,144,394.46,123.34,361.72Z"/><path fill="#010101" d="M357,162.74,322.71,197a6.69,6.69,0,0,1-11-7,7.5,7.5,0,1,0-14.15-5,21.69,21.69,0,0,0,35.81,22.53l34.26-34.26A7.5,7.5,0,0,0,357,162.74ZM511.5,210.69,469.59,101.76a85.46,85.46,0,0,0-35.46-42.34,6.52,6.52,0,0,0-.83-.43L321.08,9.25a7.31,7.31,0,0,0-1.27-.43l-3.07-.73a272.38,272.38,0,0,0-121.48,0c-1,.23-2,.47-3.07.72a7.31,7.31,0,0,0-1.27.43L78.7,59a7.27,7.27,0,0,0-.83.43,85.51,85.51,0,0,0-35.46,42.34L.5,210.69a7.5,7.5,0,0,0,5.12,9.95l83.05,21.52a7.49,7.49,0,0,0,8.61-3.94l13-26.38c2.57,29.07,4.27,58.49,5.07,87.6.16,5.54.27,10.71.35,15.81,0,2.81.08,5.63.11,8.44a7.5,7.5,0,0,0-.11,1.34c.1,5.61.16,11.33.19,17.43v1.8c0,5.67-.09,11.43-.18,17.14-.63,41.43-3.11,83.42-7.35,124.79l-.14,1.37a7.67,7.67,0,0,0,.08,2.09,7.51,7.51,0,0,0,5.78,6l1.08.23c1.59.34,3.2.66,4.8,1l1.65.34,3.43.71q4.13.81,8.26,1.57l1.77.34q4.63.84,9.29,1.62l.77.13q5,.84,10.08,1.6c14.89,2.26,30.1,4,45.27,5.29l.44,0c14.87,1.23,30,2,44.87,2.18,3.67.06,7,.08,10.2.08a675.4,675.4,0,0,0,141.89-15.1,7.51,7.51,0,0,0,5.88-8.1,1460.27,1460.27,0,0,1-2.06-275.7l13,26.36a7.49,7.49,0,0,0,8.61,3.94l83.05-21.52a7.5,7.5,0,0,0,5.12-9.95ZM202.77,21.82l1.58-.34,3-.58c1.34-.26,2.68-.51,4-.75l2.8-.48q2.13-.34,4.26-.66l2.6-.38,4.56-.58c.78-.09,1.56-.19,2.34-.27,1.65-.18,3.31-.34,5-.49l2-.18q2.82-.22,5.63-.39l1.33-.09a259.44,259.44,0,0,1,28.44,0l1.26.08q2.85.18,5.7.4l1.89.18c1.68.15,3.36.31,5,.49.76.08,1.52.18,2.28.27,1.54.18,3.08.37,4.63.59l2.53.36c1.45.22,2.89.44,4.33.68.92.15,1.83.3,2.74.47,1.36.24,2.73.49,4.09.75l2.9.58,1.61.34a31.1,31.1,0,0,1,.94,7.61c0,22.71-24.3,41.17-54.17,41.17s-54.17-18.46-54.17-41.17A31.59,31.59,0,0,1,202.77,21.82ZM149.07,487l-1.86-.32c-1.92-.32-3.83-.64-5.74-1l-2-.36-1.83-.33-4-.74-1.88-.36-2.9-.57-4.12-.82c2.8-30.39,4.64-61.13,5.52-91.69,12.23,28,18.81,60.33,18.81,93.65C149.08,485.35,149.08,486.19,149.07,487Zm43,5.61-3.73-.38q-3.37-.35-6.73-.73l-3.72-.43q-3.57-.42-7.14-.89l-3.12-.41c-1.21-.16-2.41-.34-3.61-.51,0-1.59.05-3.19.05-4.78,0-45.84-11.79-90.09-33.23-124.91.05-5.11.07-10.25.05-15.31v-4.62c38.46,31.38,62.81,89.59,63.18,153.15C193.41,492.76,192.74,492.71,192.08,492.64Zm46.76,2.88-2.15,0-3.86-.13c-2.16-.08-4.33-.16-6.5-.26l-3.88-.18c-2.3-.12-4.59-.26-6.89-.4l-3.37-.2-3.11-.23c0-37.44-7.82-73.72-22.53-104.94-13.83-29.34-33.06-52.82-55.76-68.21,0-2,0-3.93-.08-5.9q0-1.86-.06-3.75c0-.32,0-.64,0-.95,0-.8,0-1.6,0-2.4,61.49,11.92,108.5,87.28,108.5,176.59C239.08,488.21,239,491.89,238.84,495.52ZM425.48,226.11l-22-44.63a7.51,7.51,0,0,0-14.2,2.6l-1.42,14.84a1474.11,1474.11,0,0,0,.35,283.45A660.21,660.21,0,0,1,256,495.76h-2.16c.15-3.72.24-7.47.24-11.25,0-48.81-13.21-95.38-37.21-131.13-22.84-34-53.43-55.4-86.72-60.77-1-30.74-2.94-61.76-5.85-92.32l-1.55-16.21a7.51,7.51,0,0,0-14.2-2.6l-22,44.63-69-17.88L56.41,107.15A70.41,70.41,0,0,1,85.22,72.51L186.88,27.45c0,.66,0,1.32,0,2,0,31,31,56.17,69.17,56.17s69.17-25.19,69.17-56.17c0-.66,0-1.32-.05-2L426.78,72.51a70.41,70.41,0,0,1,28.81,34.64l38.89,101.08Z"/></svg>