<svg xmlns="http://www.w3.org/2000/svg" data-name="Layer 1" viewBox="0 0 512 512"><path fill="#00acea" d="M316.55,431.74a16.335,16.335,0,1,1-16.33,16.33A16.331,16.331,0,0,1,316.55,431.74Z"/><path fill="#fedb41" d="M266.55,304.19a70.55,70.55,0,1,1-70.54,70.55A70.548,70.548,0,0,1,266.55,304.19Zm37.48,70.55a37.48,37.48,0,1,0-37.48,37.48A37.48,37.48,0,0,0,304.03,374.74Z"/><circle cx="266.55" cy="374.74" r="37.48" fill="#f4b844"/><path fill="#f4b844" d="M266.55,263.74a16.335,16.335,0,1,1-16.33,16.33A16.331,16.331,0,0,1,266.55,263.74Z"/><path fill="#00efd1" d="M266.55,451.74a16.335,16.335,0,1,1-16.33,16.33A16.331,16.331,0,0,1,266.55,451.74Z"/><path fill="#00acea" d="M216.55,431.74a16.335,16.335,0,1,1-16.33,16.33A16.331,16.331,0,0,1,216.55,431.74Z"/><path fill="#083863" d="M283.046,297.947a24.172,24.172,0,0,0,7.724-17.877A24.68,24.68,0,0,0,275,257.349V55.59a35.793,35.793,0,0,0-35.94-36,36.091,36.091,0,0,0-36.06,36V163.04a51.928,51.928,0,0,1-22.056,42.6l-10.69,7.52a8.013,8.013,0,0,0,9.216,13.11l10.641-7.521A67.95,67.95,0,0,0,219,163.04V55.59a20.126,20.126,0,0,1,20.12-20,19.893,19.893,0,0,1,19.88,20V256.864a24.084,24.084,0,0,0-16.9,23.206,24.335,24.335,0,0,0,7.9,17.876,78.468,78.468,0,0,0-43.123,127.8,24.335,24.335,0,1,0,33.989,23.211,77.957,77.957,0,0,0,8.1,2.326,24.337,24.337,0,1,0,35.174,0,77.844,77.844,0,0,0,8.1-2.328,24.331,24.331,0,1,0,33.971-23.207,78.472,78.472,0,0,0-43.168-127.8Zm-16.5-26.207a8.335,8.335,0,1,1-8.33,8.33A8.344,8.344,0,0,1,266.55,271.74Zm0,40.45a62.55,62.55,0,1,1-62.54,62.55A62.621,62.621,0,0,1,266.55,312.19Zm-50,144.22a8.335,8.335,0,1,1,8.34-8.34A8.344,8.344,0,0,1,216.55,456.41Zm50,20a8.335,8.335,0,1,1,8.34-8.34A8.344,8.344,0,0,1,266.55,476.41Zm50-20a8.335,8.335,0,1,1,8.34-8.34A8.344,8.344,0,0,1,316.55,456.41Z"/><path fill="#083863" d="M266.55,420.22a45.48,45.48,0,1,0-45.48-45.48A45.532,45.532,0,0,0,266.55,420.22Zm0-74.96a29.48,29.48,0,1,1-29.48,29.48A29.514,29.514,0,0,1,266.55,345.26Z"/></svg>