<?xml version="1.0" encoding="UTF-8" standalone="no"?><svg xmlns="http://www.w3.org/2000/svg" id="icone" viewBox="0 0 512 512"><title>flash</title><path d="M171.44 219.47l.16-1a10 10 0 0 1 19.76 3.07l-.16 1a10 10 0 0 1-19.76-3.07zM349.77 226a10 10 0 0 0-8.77-5.2h-53.94L350 90.35A10 10 0 0 0 341 76H202.38a10 10 0 0 0-9.88 8.46l-17 109.3a10 10 0 0 0 19.76 3.08L210.95 96h114.12l-62.95 130.45a10 10 0 0 0 9 14.35h51.62L229.5 386.92l26.61-97.06a10 10 0 0 0-9.64-12.64h-63.79l4.67-30a10 10 0 0 0-19.76-3.08l-6.47 41.49a10 10 0 0 0 9.88 11.59h62.36l-40.62 148.14a10 10 0 0 0 18.07 8l138.62-217.2a10 10 0 0 0 .34-10.16z" fill="#02005c"/><path d="M256.11 289.86a10 10 0 0 0-9.64-12.64h-50.79L222.39 106h97.86l-58.13 120.45a10 10 0 0 0 9 14.35H296l-4.83 10h25.24L256 345.39l10.47-38.17h-15.11z" fill="#fc0"/><metadata><rdf:RDF xmlns:rdf="http://www.w3.org/1999/02/22-rdf-syntax-ns#" xmlns:rdfs="http://www.w3.org/2000/01/rdf-schema#" xmlns:dc="http://purl.org/dc/elements/1.1/"><rdf:Description about="https://iconscout.com/legal#licenses" dc:title="flash" dc:description="flash" dc:publisher="Iconscout" dc:date="2017-09-07" dc:format="image/svg+xml" dc:language="en"><dc:creator><rdf:Bag><rdf:li>Paolo Valzania</rdf:li></rdf:Bag></dc:creator></rdf:Description></rdf:RDF></metadata></svg>