<svg xmlns="http://www.w3.org/2000/svg" width="512" height="512" enable-background="new 0 0 512 512" viewBox="0 0 512 512"><path d="M184.39,494.902c-1.645,0-3.304-0.45-4.783-1.379c-3.753-2.356-5.231-7.096-3.484-11.169l73.655-171.745H73.798
				c-3.553,0-6.774-2.091-8.221-5.336c-1.446-3.246-0.848-7.039,1.528-9.682l247.08-274.809c2.957-3.289,7.869-3.942,11.582-1.538
				c3.714,2.403,5.131,7.149,3.342,11.195l-77.958,176.282h168.538c3.527,0,6.729,2.061,8.191,5.271
				c1.461,3.211,0.912,6.979-1.404,9.64L191.182,491.813C189.418,493.838,186.92,494.902,184.39,494.902z M93.993,292.609h169.438
				c3.026,0,5.849,1.521,7.515,4.047c1.665,2.525,1.949,5.72,0.757,8.5l-56.435,131.592l184.649-212.025H237.331
				c-3.043,0-5.881-1.538-7.542-4.089c-1.661-2.551-1.92-5.768-0.689-8.551l60.697-137.252L93.993,292.609z"/></svg>