<svg xmlns="http://www.w3.org/2000/svg" width="60" height="60" viewBox="0 0 60 60"><g transform="translate(370 -383)"><path fill="#47c5fe" d="M -324.26367,403 -317,413.14258 -340,435 l 9.5,-21.85742 -3,-10.14258 9.23633,0 z M -340,435 -363,413.14258 -355.73633,403 l 9.23633,0 -3,10.14258 L -340,435 Z"/><path fill="#f2f8ff" d="m -352.26316,403.00002 -3.47368,0 -7.26316,10.14286 23,21.85714 -19,-21.85714 z"/><path fill="#57e3fe" d="m -340,435 13,-21.85742 -3.26367,-10.14258 -3.23633,0 3,10.14258 z"/><path fill="#3ea2fe" d="m -327.73684,403.00002 3.47368,0 7.26316,10.14286 -23,21.85714 19,-21.85714 z"/><path fill="#57e3fe" d="m -346.5,403.00002 13,0 3,10.14286 -9.5,21.85714 -9.50001,-21.85714 z"/><path fill="#f2f8ff" d="m -338,403.00002 5.5,0 2,10.14286 -9.5,21.85714 6.4,-21.85714 z"/><path fill="#47c5fe" fill-rule="evenodd" style="line-height:normal;text-indent:0;text-align:start;text-decoration-line:none;text-decoration-style:solid;text-decoration-color:#000;text-transform:none;block-progression:tb;isolation:auto;mix-blend-mode:normal" d="m -362.68555,390.70508 a 1.0001,1.0001 0 0 0 -0.82031,1.51172 l 3.5,6.0625 a 1.0001599,1.0001599 0 1 0 1.73242,-1 l -3.5,-6.0625 a 1.0001,1.0001 0 0 0 -0.91211,-0.51172 z m 45.46875,0.43945 a 1.0001,1.0001 0 0 0 -0.88086,0.51367 l -3.5,6.0625 a 1.0001,1.0001 0 1 0 1.73047,1 l 3.5,-6.0625 a 1.0001,1.0001 0 0 0 -0.84961,-1.51367 z m -11.02539,0.51367 a 1.0001,1.0001 0 0 0 -0.82031,1.51172 l 3.5,6.0625 a 1.0001599,1.0001599 0 1 0 1.73242,-1 l -3.5,-6.0625 a 1.0001,1.0001 0 0 0 -0.91211,-0.51172 z m 8.65235,9.01953 a 1.0001,1.0001 0 0 0 -0.74414,0.39844 l -0.01,0.0117 a 1.0001378,1.0001378 0 1 0 1.58008,1.22656 l 0.01,-0.0137 a 1.0001,1.0001 0 0 0 -0.83593,-1.62305 z m -48.59961,0.0234 a 1.0001,1.0001 0 1 0 0,2 l 7,0 a 1.0001,1.0001 0 1 0 0,-2 l -7,0 z m 51.87109,0 a 1.0001,1.0001 0 1 0 0,2 l 3.76563,0 a 1.0001,1.0001 0 1 0 0,-2 l -3.76563,0 z" color="#000" font-family="sans-serif" font-weight="400" overflow="visible" white-space="normal"/><path fill="#2d3a66" style="line-height:normal;text-indent:0;text-align:start;text-decoration-line:none;text-decoration-style:solid;text-decoration-color:#000;text-transform:none;block-progression:tb;isolation:auto;mix-blend-mode:normal" d="m -355.73633,402 a 1.0001,1.0001 0 0 0 -0.81445,0.41797 l -7.26172,10.14258 a 1.0001,1.0001 0 0 0 0.12305,1.30664 l 22.98047,21.83984 a 1.0000999,1.0000999 0 0 0 0.0176,0.0176 l 0.002,0 a 1.0000999,1.0000999 0 0 0 0.0742,0.0645 1.0001,1.0001 0 0 0 0.002,0 1.0000999,1.0000999 0 0 0 0.0801,0.0586 1.0001,1.0001 0 0 0 0.002,0 1.0000999,1.0000999 0 0 0 0.084,0.0488 1.0001,1.0001 0 0 0 0.002,0 1.0000999,1.0000999 0 0 0 0.18554,0.0703 1.0001,1.0001 0 0 0 0.002,0 1.0000999,1.0000999 0 0 0 0.0957,0.0215 1.0001,1.0001 0 0 0 0.002,0 1.0000999,1.0000999 0 0 0 0.19727,0.0117 1.0000999,1.0000999 0 0 0 0.002,0 1.0001,1.0001 0 0 0 0.008,0 1.0000999,1.0000999 0 0 0 0.16992,-0.0234 1.0000999,1.0000999 0 0 0 0.0469,-0.0117 1.0000999,1.0000999 0 0 0 0.0684,-0.0215 1.0000999,1.0000999 0 0 0 0.26367,-0.13867 1.0000999,1.0000999 0 0 0 0.002,-0.002 1.0000999,1.0000999 0 0 0 0.0762,-0.0645 1.0001,1.0001 0 0 0 0.0156,-0.0137 l 23,-21.85742 a 1.0001,1.0001 0 0 0 0.12305,-1.30664 l -7.26172,-10.14258 A 1.0001,1.0001 0 0 0 -324.26367,402 l -9.23633,0 -13,0 -9.23633,0 z m 0.51367,2 4.31641,0 -0.86328,2.91406 a 0.50005,0.50005 0 1 0 0.95898,0.28321 l 0.94727,-3.19727 2.02539,0 -2.36719,8 -2.79492,0 a 1.0001,1.0001 0 1 0 0,2 l 2.78125,0 7.33789,16.88477 L -360.64648,414 -357,414 a 1.0001,1.0001 0 1 0 0,-2 l -3.95117,0 5.72851,-8 z m 9.46875,0 11.50782,0 2.36523,8 -4.11914,0 a 1.0001,1.0001 0 1 0 0,2 l 4.03711,0 L -340,432.49023 -348.03711,414 -340,414 a 1.0001,1.0001 0 1 0 0,-2 l -8.11914,0 2.36523,-8 z m 13.5918,0 7.38477,0 5.72851,8 -2.15429,0 -1.47657,-2.0625 a 0.50005,0.50005 0 0 0 -0.42969,-0.21484 0.50005,0.50005 0 0 0 -0.38476,0.79687 l 1.06055,1.48047 -7.36133,0 -2.36719,-8 z m 6.78125,2.55273 a 0.50005,0.50005 0 0 0 -0.38281,0.79688 l 0.84179,1.17578 a 0.50052573,0.50052573 0 1 0 0.81446,-0.58203 l -0.84375,-1.17774 a 0.50005,0.50005 0 0 0 -0.42969,-0.21289 z m -4.40039,7.44727 10.42773,0 -17.76562,16.88477 L -329.78125,414 Z m -6.09766,2.75391 a 0.50005,0.50005 0 0 0 -0.45898,0.30859 l -2.41211,5.55078 a 0.50005,0.50005 0 1 0 0.91602,0.39844 l 2.4121,-5.55078 a 0.50005,0.50005 0 0 0 -0.45703,-0.70703 z m -3.59375,8.26757 a 0.50005,0.50005 0 0 0 -0.45898,0.3086 l -0.58398,1.3418 a 0.50034913,0.50034913 0 0 0 0.91796,0.39843 l 0.58399,-1.34179 a 0.50005,0.50005 0 0 0 -0.45899,-0.70704 z" color="#000" font-family="sans-serif" font-weight="400" overflow="visible" white-space="normal"/></g></svg>