<svg xmlns="http://www.w3.org/2000/svg" data-name="Layer 1" viewBox="0 0 512 512"><path fill="#aeadb3" d="M504,266.64c-3.38,24.84-21.88,37.7-44.51,45.14l-10.66,2.56L362.9,334.92,144.47,386,41.19,412l-.27.06-3.08.78a13.25,13.25,0,0,1-3,.65c-9.47,1-22.22-7.28-26.29-23.52a34.07,34.07,0,0,1,7-30.54c19.11-22.12,77.94-64.75,99.75-84.25,1.65-1.48,2.85-2.54,3.68-3.3-1.56,1.34-2.71,2.25,4-4,12-11.23,144.51-150.71,144.76-150.4,9.15,11.07,18.49,21.42,30.43,29.59,12.38,8.48,26.9,13.88,41.32,17.79,7.57,2.05,19.94,1.81,27.46-.41,10.27-3.05,24.18-6.91,28.68-15.47,3.34-6.36,4.09-14.29,5-21.29.85-6.4,1.58-16.15,3.84-25,3.67-14.32,18.71-22.92,32.69-18.18C470.31,95.84,479.09,148,479.09,148L499,227.11C504,242.89,505.41,255.89,504,266.64Z"/><path fill="#787681" d="M267.71 117.53h0L106.47 283.93c47.76-5.78 75.32-26.21 113.57-55.41l90.13-74.27M397.89 325.17l-.18 30.09-14.37-26.44A7.74 7.74 0 1 1 397 321.43 7.89 7.89 0 0 1 397.89 325.17zM443.61 313.66l-.18 30.09-14.37-26.43a7.75 7.75 0 1 1 13.61-7.4A7.89 7.89 0 0 1 443.61 313.66zM352.16 336.68L352 366.77l-14.37-26.44a7.75 7.75 0 0 1 13.61-7.4A7.9 7.9 0 0 1 352.16 336.68zM151.29 387.13l-.18 30.08-14.37-26.43a7.74 7.74 0 1 1 14.55-3.65zM197 375.62l-.18 30.09-14.37-26.44a7.75 7.75 0 0 1 13.61-7.4A7.9 7.9 0 0 1 197 375.62zM105.56 398.63l-.18 30.09L91 402.29a7.75 7.75 0 1 1 13.61-7.4A7.89 7.89 0 0 1 105.56 398.63z"/><path fill="#dadadc" d="M504,266.64c-3.38,24.84-21.88,37.7-44.51,45.14l-10.66,2.56L362.9,334.92,144.47,386,41.19,412l-.27.06-6.07,1.43c-9.47,1-22.22-7.28-26.29-23.52Z"/><path fill="#fed947" d="M396.26,147.69c23.78,52.74,14.15,78.55,8.88,86.95-3.63,5.78-9.94,14.68-62.21,36.2-64.59,26.6-73.61,28.67-85.46,40.43-5.69,5.65-11.53,9.45-17.06,21l-66.77,16.63c5-34.24,19.89-46.14,30.44-56.63,11.84-11.76,20.87-13.83,85.46-40.43,41.63-17.14,53.31-22.64,62.21-36.2,11.23-17.12,10.46-36.2,8.9-49.86"/><path d="M506.18,227.7l-19.73-78.57c-.89-5-10.92-56.8-46.86-69a32.09,32.09,0,0,0-25.87,2.27,33.56,33.56,0,0,0-16.49,21.15,156.1,156.1,0,0,0-3.43,20.94c-.2,1.78-.39,3.43-.59,4.9l-.27,2.1c-.77,6-1.57,12.14-4,16.69-2.88,5.48-15.07,9.08-23.14,11.46l-1,.31a38.84,38.84,0,0,1-7.35,1.27l-.17,0h0c-5.54.47-11.72.18-15.81-.93-16.27-4.41-29.05-9.89-39.05-16.73-10.7-7.33-19.28-16.57-28.87-28.19l0,0c-.11-.13-.23-.25-.35-.37l-.19-.21h0a7.62,7.62,0,0,0-1.89-1.33l-.08,0a5.45,5.45,0,0,0-.62-.26,1.27,1.27,0,0,0-.18-.06,5.6,5.6,0,0,0-.54-.17l-.26-.06c-.15,0-.31-.07-.47-.09l-.31,0-.44,0-.16,0a6.15,6.15,0,0,0-3.92.95,7.54,7.54,0,0,0-1.73,1.33l-.43.44c-.91.86-2,2-3.35,3.38-2.39,2.47-5.83,6-10.07,10.46l-.51.54L233.14,145.1l-7-7.11a7.5,7.5,0,0,0-10.69,10.53l7.24,7.35-11.44,11.82-7.5-7.61a7.5,7.5,0,0,0-10.69,10.52l7.75,7.87-11.45,11.81-8-8.11a7.5,7.5,0,0,0-10.69,10.52l8.24,8.37-11.45,11.81L159,204.26a7.5,7.5,0,1,0-10.69,10.52l8.74,8.87-49.46,51c-7.81,6.73-19.27,15.8-31.33,25.35C51.1,320,22.6,342.53,9.92,357.21A41.55,41.55,0,0,0,1.3,394.48c2.86,11.39,9.78,20.78,19,25.75a27.76,27.76,0,0,0,13.13,3.5,21,21,0,0,0,6.57-1l52.78-13.31L106,433.81l.16-27.78,32.29-8.14,13.27,24.41.16-27.7L184.52,387l12.95,23.81.15-26.88,142.81-33.38,12.69,23.34.16-26.34,33.27-7.78,12.3,22.62.15-25.53L432.67,329l11.9,21.89.15-24.71,5.89-1.38.12,0c27.39-6.89,45.13-18.23,54.24-34.66C513.89,274,514.3,253,506.18,227.7ZM354.6,223.4c8.7-13.26,12.57-29.5,11.58-48.34,1-.21,2-.45,2.89-.72l1-.3c7.48-2.21,16.12-4.77,22.91-9.21,15.16,39.06,8.24,60.11,2.37,69.47-2.5,4-7.68,12.24-58.72,33.26-12.06,5-22,9-30.76,12.56-37.51,15.24-46.42,18.86-57.12,29.48-1.05,1-2.12,2-3.26,3.08-4.28,3.93-9.07,8.35-13.63,16.72l-52,13c5.23-20.81,14.81-30.14,23.41-38.5l2.69-2.63c8.32-8.27,14.77-11,52.21-26.24,8.78-3.56,18.73-7.6,30.82-12.58C330.64,245.26,344.31,239.09,354.6,223.4ZM168.13,234.91l6.28,6.39a7.5,7.5,0,1,0,10.69-10.53l-6.58-6.68L189.9,212.2l6.9,7a7.5,7.5,0,1,0,10.69-10.53l-7.21-7.32,11.37-11.89,7.53,7.65a7.5,7.5,0,0,0,10.69-10.52l-7.85-8,4.29-4.48,7.08-7.41,8.18,8.3a7.5,7.5,0,0,0,10.69-10.52l-8.5-8.63c5.59-5.84,10.73-11.21,15.1-15.76l8.49-8.77c8.39,9.69,16.55,17.76,26.57,24.62,1,.69,2.07,1.37,3.13,2L215.4,225.3c-29.85,22.78-53,40.41-85.72,49.22C135.34,269,150,253.75,168.13,234.91ZM21.27,367C33,353.41,60.94,331.31,85.56,311.81c8-6.31,15.69-12.42,22.33-17.84,50.44-6.24,79.71-28.57,116.72-56.83l.22-.17,86.55-71.32a176.5,176.5,0,0,0,26.14,9.15,56.55,56.55,0,0,0,13.72,1.65c.71,15.33-2.37,28.33-9.18,38.72-7.53,11.48-17.17,16.24-58.8,33.38-12.05,5-22,9-30.74,12.55C215,276.35,206.08,280,195.38,290.59c-.83.83-1.7,1.67-2.58,2.53-10,9.74-23.54,22.91-29.16,53.29L149.1,350,15,384.57A26.12,26.12,0,0,1,21.27,367Zm470.58-84.21c-7,12.59-21.61,21.54-44.72,27.37L142.78,381.33l-.13,0L36,408.25a6.32,6.32,0,0,0-.62.18c-2.07.72-5.06.2-8-1.39A22,22,0,0,1,19.22,399l133.56-34.4,340.6-84.92C492.91,280.74,492.41,281.8,491.85,282.81Zm5.08-19.49L256,323.38c1.08-1,2.18-2,3.31-3.13,8.32-8.27,14.77-11,52.2-26.23,8.78-3.57,18.73-7.61,30.83-12.59,51.19-21.08,60.52-30.9,65.7-39.15,9.52-15.17,16.32-43.11-4.24-90.56,2.39-6,3.23-12.48,4-18.3l.27-2c.21-1.55.41-3.29.62-5.17a145.59,145.59,0,0,1,3.06-18.93,18.5,18.5,0,0,1,9.11-11.68,17.23,17.23,0,0,1,13.9-1.25c28.47,9.65,36.86,57.11,36.94,57.58,0,.19.08.39.12.58l19.87,79.08c0,.16.08.32.13.48C495.62,243.79,497.31,254.23,496.93,263.32Z"/></svg>