<svg xmlns="http://www.w3.org/2000/svg" xmlns:serif="http://www.serif.com/" fill-rule="evenodd" stroke-linejoin="round" stroke-miterlimit="2" clip-rule="evenodd" viewBox="0 0 24 24"><g transform="matrix(1 0 0 1 -40 -40)" serif:id="Shopping Bag Add Checkout"><rect width="24" height="24" x="40" y="40" fill="none"/><path fill="#2c2c2c" d="M16,10C16,12.24 14.24,14 12,14C9.76,14 8,12.24 8,10C8,9.448 7.552,9 7,9C6.448,9 6,9.448 6,10C6,13.36 8.64,16 12,16C15.36,16 18,13.36 18,10C18,9.448 17.552,9 17,9C16.448,9 16,9.448 16,10Z" transform="matrix(.9 0 0 .9 41.2 41)"/><path fill="#2c2c2c" d="M379,876.012L379,890.75C379,891.078 379.129,891.393 379.358,891.625C379.587,891.857 379.898,891.988 380.222,891.988C382.39,891.988 388,891.988 388,891.988C388.552,891.988 389,892.441 389,893C389,893.559 388.552,894.012 388,894.012C388,894.012 382.39,894.012 380.222,894.012C379.368,894.013 378.548,893.669 377.944,893.057C377.339,892.445 377,891.615 377,890.75L377,875C377,874.441 377.448,873.988 378,873.988L398,873.988C398.552,873.988 399,874.441 399,875L399,882.312C399,882.871 398.552,883.325 398,883.325C397.448,883.325 397,882.871 397,882.313L397,876.012L379,876.012Z" transform="matrix(.9 0 0 .88889 -297.2 -731.778)"/><path fill="#2c2c2c" d="M397.805,876.698C397.805,876.698 396.95,875.415 396.358,874.527C395.867,873.79 394.862,873.325 393.764,873.325C391.11,873.325 384.89,873.325 382.236,873.325C381.138,873.325 380.133,873.79 379.642,874.527C379.05,875.415 378.195,876.698 378.195,876.698C377.973,877.031 378.153,877.437 378.598,877.604C379.042,877.77 379.583,877.635 379.805,877.302C379.805,877.302 380.66,876.019 381.252,875.131C381.439,874.852 381.819,874.675 382.236,874.675C384.89,874.675 391.11,874.675 393.764,874.675C394.181,874.675 394.561,874.852 394.748,875.131C395.34,876.019 396.195,877.302 396.195,877.302C396.417,877.635 396.958,877.77 397.402,877.604C397.847,877.437 398.027,877.031 397.805,876.698Z" transform="matrix(1 0 0 1.33333 -336 -1123.33)"/><path fill="#2c2c2c" d="M43,1603.9L49,1603.9C49.497,1603.9 49.9,1603.5 49.9,1603C49.9,1602.5 49.497,1602.1 49,1602.1L43,1602.1C42.503,1602.1 42.1,1602.5 42.1,1603C42.1,1603.5 42.503,1603.9 43,1603.9Z" transform="translate(13 -1544)"/><path fill="#2c2c2c" d="M43.273,1604L45.636,1601.64C45.988,1601.29 45.988,1600.72 45.636,1600.36C45.285,1600.01 44.715,1600.01 44.364,1600.36L41.364,1603.36C41.012,1603.72 41.012,1604.29 41.364,1604.64L44.364,1607.64C44.715,1607.99 45.285,1607.99 45.636,1607.64C45.988,1607.29 45.988,1606.72 45.636,1606.36L43.273,1604Z" transform="matrix(-1 0 0 1 104 -1545)"/></g></svg>