<svg xmlns="http://www.w3.org/2000/svg" xmlns:xlink="http://www.w3.org/1999/xlink" width="552.852" height="194" viewBox="0 0 552.852 194">
  <defs>
    <style>
      .cls-1 {
        fill: none;
      }

      .cls-2 {
        clip-path: url(#clip-path);
      }

      .cls-3 {
        fill: #8933a7;
        stroke: #8933a7;
        stroke-miterlimit: 10;
      }

      .cls-4 {
        filter: url(#Exclusion_1);
      }
    </style>
    <clipPath id="clip-path">
      <rect class="cls-1" width="552.852" height="194"/>
    </clipPath>
    <filter id="Exclusion_1" x="0" y="0" width="552.852" height="194" filterUnits="userSpaceOnUse">
      <feOffset dy="3" input="SourceAlpha"/>
      <feGaussianBlur stdDeviation="3" result="blur"/>
      <feFlood flood-opacity="0.161"/>
      <feComposite operator="in" in2="blur"/>
      <feComposite in="SourceGraphic"/>
    </filter>
  </defs>
  <g id="Repeat_Grid_1" data-name="Repeat Grid 1" class="cls-2">
    <g transform="translate(60.852 -102)">
      <g class="cls-4" transform="matrix(1, 0, 0, 1, -60.85, 102)">
        <path id="Exclusion_1-2" data-name="Exclusion 1" class="cls-3" d="M450,175.5a88.147,88.147,0,0,1-17.634-1.778,87.021,87.021,0,0,1-31.288-13.166,87.757,87.757,0,0,1-31.7-38.5,87.062,87.062,0,0,1-5.1-16.425,88.354,88.354,0,0,1,0-35.269,87.021,87.021,0,0,1,13.166-31.288,87.756,87.756,0,0,1,38.5-31.7,87.054,87.054,0,0,1,16.425-5.1,88.353,88.353,0,0,1,35.268,0,87.018,87.018,0,0,1,31.288,13.166,87.755,87.755,0,0,1,31.7,38.5,87.067,87.067,0,0,1,5.1,16.425,88.358,88.358,0,0,1,0,35.269,87.02,87.02,0,0,1-13.166,31.288,87.756,87.756,0,0,1-38.5,31.7,87.064,87.064,0,0,1-16.425,5.1A88.147,88.147,0,0,1,450,175.5Zm3.024-110.6a23.071,23.071,0,0,0-11.856,3.072,21.033,21.033,0,0,0-8.113,8.64,27.522,27.522,0,0,0-2.88,12.768,29.112,29.112,0,0,0,1.656,10.128,21.024,21.024,0,0,0,4.968,7.728,21.476,21.476,0,0,0,7.8,4.9,29.709,29.709,0,0,0,10.152,1.632,30.611,30.611,0,0,0,7.872-1.1,32.266,32.266,0,0,0,7.392-2.928c2.357-1.338,3.552-3.017,3.552-4.992a5.217,5.217,0,0,0-1.008-3.36,3.245,3.245,0,0,0-2.641-1.248,10.645,10.645,0,0,0-4.224,1.536,53.925,53.925,0,0,1-5.328,2.112,17.578,17.578,0,0,1-5.424.768c-4.013,0-7.113-1.05-9.216-3.12s-3.362-5.349-3.744-9.743H470.3a3.475,3.475,0,0,0,2.736-1.032,4.578,4.578,0,0,0,.912-3.1,26.236,26.236,0,0,0-2.592-12,18.961,18.961,0,0,0-7.3-7.872A21.375,21.375,0,0,0,453.024,64.9Zm-59.712,0A19.377,19.377,0,0,0,375.12,76.328,29.2,29.2,0,0,0,372.48,89.1a30.155,30.155,0,0,0,2.64,12.911,20.47,20.47,0,0,0,7.392,8.689,19.547,19.547,0,0,0,10.8,3.072,18.486,18.486,0,0,0,9.072-2.208,15.108,15.108,0,0,0,6.1-6.144v2.4a5.421,5.421,0,0,0,1.632,4.127,6.842,6.842,0,0,0,8.64,0,5.421,5.421,0,0,0,1.632-4.127V50.408a5.159,5.159,0,0,0-1.728-4.032,6.425,6.425,0,0,0-4.415-1.536,6.01,6.01,0,0,0-4.272,1.489,5.111,5.111,0,0,0-1.584,3.888V72.968a14.714,14.714,0,0,0-6.048-5.953A18.881,18.881,0,0,0,393.312,64.9Zm90.528.192a6.578,6.578,0,0,0-4.272,1.536,4.7,4.7,0,0,0-1.872,3.744,4.891,4.891,0,0,0,.481,2.208l17.856,37.152a6.175,6.175,0,0,0,2.543,2.784,7,7,0,0,0,3.5.96,6.658,6.658,0,0,0,3.5-.96,6.348,6.348,0,0,0,2.448-2.784l17.76-37.152a5.13,5.13,0,0,0,.576-2.3,4.652,4.652,0,0,0-1.776-3.7,6.074,6.074,0,0,0-3.984-1.488,5.024,5.024,0,0,0-2.832.864,5.9,5.9,0,0,0-2.065,2.592L502.368,98.12,488.928,68.456A5.374,5.374,0,0,0,483.84,65.1Zm-213.5,48.672a29.707,29.707,0,0,1-10.152-1.632,21.469,21.469,0,0,1-7.8-4.9,21.018,21.018,0,0,1-4.968-7.728,29.114,29.114,0,0,1-1.656-10.128,27.511,27.511,0,0,1,2.88-12.768,21.025,21.025,0,0,1,8.112-8.64A23.076,23.076,0,0,1,268.608,64.9a21.371,21.371,0,0,1,11.04,2.784,18.963,18.963,0,0,1,7.3,7.872,26.236,26.236,0,0,1,2.592,12,4.578,4.578,0,0,1-.912,3.1,3.476,3.476,0,0,1-2.737,1.032H257.568c.382,4.394,1.641,7.673,3.744,9.743s5.2,3.12,9.216,3.12a17.577,17.577,0,0,0,5.423-.768,53.852,53.852,0,0,0,5.328-2.112,10.654,10.654,0,0,1,4.225-1.536,3.244,3.244,0,0,1,2.64,1.248,5.213,5.213,0,0,1,1.008,3.36c0,1.975-1.2,3.655-3.552,4.992a32.239,32.239,0,0,1-7.392,2.928A30.613,30.613,0,0,1,270.336,113.768ZM268.9,73.352a10.345,10.345,0,0,0-7.824,3.073c-1.943,2.038-3.122,5.01-3.5,8.832h21.7c-.127-3.885-1.1-6.873-2.88-8.88A9.539,9.539,0,0,0,268.9,73.352Zm-60,40.416a19.547,19.547,0,0,1-10.8-3.072,20.47,20.47,0,0,1-7.393-8.689,30.168,30.168,0,0,1-2.64-12.911,29.211,29.211,0,0,1,2.64-12.768A19.377,19.377,0,0,1,208.9,64.9a18.874,18.874,0,0,1,9.023,2.111,14.716,14.716,0,0,1,6.048,5.953V50.216a5.111,5.111,0,0,1,1.584-3.888,6.014,6.014,0,0,1,4.272-1.489,6.426,6.426,0,0,1,4.416,1.536,5.159,5.159,0,0,1,1.728,4.032v57.408a5.421,5.421,0,0,1-1.633,4.127,6.842,6.842,0,0,1-8.64,0,5.421,5.421,0,0,1-1.632-4.127v-2.4a15.1,15.1,0,0,1-6.1,6.144A18.487,18.487,0,0,1,208.9,113.768Zm3.263-39.552a12.891,12.891,0,0,0-5.112.96,10.072,10.072,0,0,0-3.816,2.88c-2.1,2.548-3.168,6.263-3.168,11.04,0,4.841,1.066,8.652,3.168,11.327a10.184,10.184,0,0,0,3.792,3.024,12.068,12.068,0,0,0,5.04,1.008,12.53,12.53,0,0,0,5.1-.984,9.925,9.925,0,0,0,3.78-2.952c2.071-2.613,3.12-6.392,3.12-11.232s-1.05-8.6-3.12-11.184a9.953,9.953,0,0,0-3.756-2.916A12.367,12.367,0,0,0,212.16,74.216ZM85.92,113.768a29.708,29.708,0,0,1-10.152-1.632,21.475,21.475,0,0,1-7.8-4.9A21.019,21.019,0,0,1,63,99.512a29.114,29.114,0,0,1-1.656-10.128,27.521,27.521,0,0,1,2.88-12.768,21.029,21.029,0,0,1,8.112-8.64A23.078,23.078,0,0,1,84.192,64.9a21.369,21.369,0,0,1,11.039,2.784,18.958,18.958,0,0,1,7.3,7.872,26.236,26.236,0,0,1,2.592,12,4.578,4.578,0,0,1-.912,3.1,3.475,3.475,0,0,1-2.736,1.032H73.152c.383,4.395,1.642,7.674,3.744,9.743s5.2,3.12,9.216,3.12a17.587,17.587,0,0,0,5.424-.768,54.028,54.028,0,0,0,5.328-2.112,10.645,10.645,0,0,1,4.224-1.536,3.241,3.241,0,0,1,2.64,1.248,5.212,5.212,0,0,1,1.008,3.36c0,1.975-1.195,3.655-3.551,4.992a32.263,32.263,0,0,1-7.393,2.928A30.6,30.6,0,0,1,85.92,113.768ZM84.48,73.352a10.347,10.347,0,0,0-7.825,3.073c-1.942,2.037-3.121,5.009-3.5,8.832h21.7c-.128-3.886-1.1-6.874-2.88-8.88A9.539,9.539,0,0,0,84.48,73.352Zm-60,40.416a19.547,19.547,0,0,1-10.8-3.072,20.462,20.462,0,0,1-7.392-8.689A30.155,30.155,0,0,1,3.648,89.1,29.2,29.2,0,0,1,6.288,76.328a20.086,20.086,0,0,1,7.344-8.448A19.944,19.944,0,0,1,24.48,64.9,18.881,18.881,0,0,1,33.5,67.016a14.726,14.726,0,0,1,6.048,5.953V50.216a5.108,5.108,0,0,1,1.584-3.888,6.009,6.009,0,0,1,4.271-1.489,6.427,6.427,0,0,1,4.416,1.536,5.159,5.159,0,0,1,1.728,4.032v57.408a5.421,5.421,0,0,1-1.632,4.127,6.072,6.072,0,0,1-4.32,1.536,6.072,6.072,0,0,1-4.32-1.536,5.421,5.421,0,0,1-1.633-4.127v-2.4a15.1,15.1,0,0,1-6.1,6.144A18.487,18.487,0,0,1,24.48,113.768Zm3.264-39.552a12.892,12.892,0,0,0-5.112.96,10.065,10.065,0,0,0-3.816,2.88c-2.1,2.547-3.168,6.262-3.168,11.04,0,4.842,1.066,8.653,3.168,11.327a10.178,10.178,0,0,0,3.791,3.024,12.068,12.068,0,0,0,5.04,1.008,12.533,12.533,0,0,0,5.1-.984,9.924,9.924,0,0,0,3.78-2.952c2.07-2.612,3.119-6.391,3.119-11.232s-1.05-8.6-3.119-11.184a9.952,9.952,0,0,0-3.756-2.916A12.366,12.366,0,0,0,27.744,74.216Zm289.92,39.264a7,7,0,0,1-3.5-.96,6.173,6.173,0,0,1-2.544-2.784L293.76,72.584a4.89,4.89,0,0,1-.48-2.208,4.7,4.7,0,0,1,1.872-3.744,6.573,6.573,0,0,1,4.271-1.536,5.374,5.374,0,0,1,5.089,3.36l13.44,29.664L331.3,68.552a5.9,5.9,0,0,1,2.064-2.592,5.025,5.025,0,0,1,2.832-.864,6.07,6.07,0,0,1,3.983,1.488,4.653,4.653,0,0,1,1.777,3.7,5.141,5.141,0,0,1-.576,2.3l-17.761,37.152a6.344,6.344,0,0,1-2.448,2.784A6.66,6.66,0,0,1,317.664,113.48Zm-184.416,0a7,7,0,0,1-3.5-.96,6.176,6.176,0,0,1-2.544-2.784L109.344,72.584a4.9,4.9,0,0,1-.48-2.208,4.7,4.7,0,0,1,1.872-3.744,6.577,6.577,0,0,1,4.272-1.536,5.374,5.374,0,0,1,5.088,3.36l13.44,29.664L146.88,68.552a5.9,5.9,0,0,1,2.064-2.592,5.025,5.025,0,0,1,2.832-.864,6.074,6.074,0,0,1,3.984,1.488,4.654,4.654,0,0,1,1.776,3.7,5.13,5.13,0,0,1-.576,2.3L139.2,109.736a6.348,6.348,0,0,1-2.448,2.784A6.666,6.666,0,0,1,133.248,113.48Zm263.232-9.024a12.066,12.066,0,0,1-5.04-1.008,10.182,10.182,0,0,1-3.792-3.024c-2.1-2.674-3.168-6.486-3.168-11.327,0-4.779,1.066-8.493,3.168-11.04a10.071,10.071,0,0,1,3.816-2.88,12.892,12.892,0,0,1,5.112-.96,12.367,12.367,0,0,1,5.028.972A9.953,9.953,0,0,1,405.36,78.1c2.07,2.58,3.12,6.343,3.12,11.184s-1.05,8.619-3.12,11.232a9.925,9.925,0,0,1-3.78,2.952A12.534,12.534,0,0,1,396.48,104.456Zm67.2-19.2h-21.7c.383-3.823,1.562-6.794,3.5-8.832a10.346,10.346,0,0,1,7.824-3.073,9.539,9.539,0,0,1,7.488,3.024c1.784,2.007,2.753,4.994,2.88,8.879Z" transform="translate(5.85 6)"/>
      </g>
    </g>
  </g>
</svg>
