<?xml version="1.0" encoding="UTF-8"?><svg xmlns="http://www.w3.org/2000/svg" xmlns:xlink="http://www.w3.org/1999/xlink" version="1.1" id="Layer_1" x="0px" y="0px" viewBox="0 0 29 29" xml:space="preserve"><style type="text/css">.st0{fill:none;stroke:#000000;stroke-width:2;stroke-miterlimit:10;} .st1{fill:none;stroke:#000000;stroke-width:2;stroke-linecap:round;stroke-linejoin:round;stroke-miterlimit:10;} .st2{fill:none;stroke:#000000;stroke-miterlimit:10;} .st3{fill:none;stroke:#000000;stroke-width:2;stroke-miterlimit:10;stroke-dasharray:1.7411,1.7411;} .st4{fill:none;stroke:#000000;stroke-width:2;stroke-linecap:round;stroke-linejoin:round;stroke-dasharray:2.0261,4.0522;} .st5{fill:#606060;} .st6{stroke:#000000;stroke-miterlimit:10;}</style><path d="M20.666 27.021a5.907 5.907 0 0 1-2.934-.779l-.126-.071A39.137 39.137 0 0 1 3.491 12.355l-.657-1.095a5.849 5.849 0 0 1 .881-7.153l1.309-1.309c1.1-1.1 2.889-1.1 3.988 0l2.884 2.884a2.83 2.83 0 0 1 .464 3.378l-1.084 1.925a.213.213 0 0 0 .035.255l6.421 6.421a.216.216 0 0 0 .257.034l1.922-1.083.001-.001a2.832 2.832 0 0 1 3.378.464l2.885 2.886c1.1 1.1 1.1 2.889 0 3.988l-1.367 1.366a5.848 5.848 0 0 1-4.142 1.706zM7.018 3.973c-.21 0-.42.08-.58.24L5.129 5.521a3.85 3.85 0 0 0-.58 4.708l.657 1.095a37.13 37.13 0 0 0 13.389 13.107l.126.071c1.526.873 3.446.626 4.672-.602l1.367-1.366a.82.82 0 0 0 0-1.16l-2.885-2.886a.823.823 0 0 0-.983-.134l-1.922 1.083a2.222 2.222 0 0 1-2.652-.363l-6.421-6.421a2.218 2.218 0 0 1-.363-2.651l1.084-1.924a.824.824 0 0 0-.135-.982L7.598 4.213a.818.818 0 0 0-.58-.24z"/><metadata><rdf:RDF xmlns:rdf="http://www.w3.org/1999/02/22-rdf-syntax-ns#" xmlns:rdfs="http://www.w3.org/2000/01/rdf-schema#" xmlns:dc="http://purl.org/dc/elements/1.1/"><rdf:Description about="https://iconscout.com/legal#licenses" dc:title="phone,handset,telephone,call" dc:description="phone,handset,telephone,call" dc:publisher="Iconscout" dc:date="2017-10-03" dc:format="image/svg+xml" dc:language="en"><dc:creator><rdf:Bag><rdf:li>Jemis Mali</rdf:li></rdf:Bag></dc:creator></rdf:Description></rdf:RDF></metadata></svg>