<svg xmlns="http://www.w3.org/2000/svg" enable-background="new 0 0 512 512" viewBox="0 0 512 512"><path fill="#FBB040" d="M493.3,146.2l-18.7,44c-12,28.2-46.8,38.3-72,21v263.9H109.4V211.2c-8.4,5.8-18,8.5-27.3,8.5
			c-18.6,0-36.7-10.8-44.7-29.5l-18.7-44c-9-21.2-1.8-45.8,17.2-58.9l73.5-50.5h46c1.4,69.1,45.9,127.9,100.6,127.9
			S355.2,106,356.6,36.8h46l73.5,50.5C495.1,100.4,502.3,125,493.3,146.2z"/><path d="M486.8,142.4c-5.1,11.9-10.1,23.8-15.2,35.7c-2.2,5.2-4.2,10.6-7.2,15.3c-5.6,8.8-14.6,15-24.6,17.6
				c-11.7,2.9-23.5,0.3-33.4-6.3c-4.8-3.2-11.3,1-11.3,6.5c0,29.9,0,59.8,0,89.7c0,47.2,0,94.4,0,141.7c0,10.9,0,21.7,0,32.6
				c2.5-2.5,5-5,7.5-7.5c-33.1,0-66.3,0-99.4,0c-52.6,0-105.1,0-157.7,0c-12,0-24.1,0-36.1,0c2.5,2.5,5,5,7.5,7.5
				c0-29.9,0-59.8,0-89.7c0-47.2,0-94.4,0-141.7c0-10.9,0-21.7,0-32.6c0-5.4-6.5-9.7-11.3-6.5c-12.3,8.1-27.8,10.1-41.2,3.5
				c-10-4.8-16.7-12.9-21-23c-5.9-13.9-11.9-27.7-17.7-41.7c-3.6-8.6-4.4-20.3-0.8-30.5c3-8.4,8.9-15.2,16.1-20.1
				c12.2-8.4,24.5-16.8,36.7-25.2c11.8-8.1,23.7-16.3,35.5-24.4c-1.3,0.3-2.5,0.7-3.8,1c15.3,0,30.7,0,46,0c-2.5-2.5-5-5-7.5-7.5
				c1.2,49.1,24,104.7,70.9,126.7c20.6,9.7,44.3,11.5,65.9,3.6c22.6-8.3,40.8-24.9,53.9-44.8c16.6-25.2,24.7-55.4,25.5-85.4
				c-2.5,2.5-5,5-7.5,7.5c15.3,0,30.7,0,46,0c-1.3-0.3-2.5-0.7-3.8-1c12.8,8.8,25.6,17.6,38.4,26.4c8.4,5.8,16.8,11.5,25.1,17.3
				c4.3,3,9.1,5.8,13.1,9.3c13.9,12.2,17.5,31.1,10.6,48c-1.5,3.8,1.7,8.2,5.2,9.2c4.3,1.2,7.7-1.5,9.2-5.2
				c9.6-23.6,1.5-51-18.8-66.1c-7.7-5.7-15.8-10.9-23.7-16.3c-13.1-9-26.1-17.9-39.2-26.9c-3.7-2.6-7.4-5.3-11.3-7.7
				c-2.9-1.9-5.8-1.8-9.1-1.8c-13.9,0-27.9,0-41.8,0c-4.1,0-7.4,3.4-7.5,7.5c-1.1,43.6-20.7,92.6-61.8,113
				c-17.7,8.8-38.1,9.6-56.6,2.6c-18.9-7.1-34.3-22.2-45.1-38.9c-14.7-22.8-22-49.7-22.7-76.7c-0.1-4.1-3.4-7.5-7.5-7.5
				c-9,0-18,0-26.9,0c-5.2,0-10.3,0-15.5,0c-2.7,0-5.2-0.2-7.7,1.2c-6.2,3.6-12,8.3-17.9,12.3c-10.2,7-20.5,14-30.7,21.1
				c-7.5,5.1-14.9,10.2-22.4,15.4C23.2,87,14.6,96.7,10.2,109.7c-4.9,14.4-2.8,28.9,3,42.6c4.3,10.2,8.7,20.5,13,30.7
				c5.5,13,11,24.7,22.8,33.5c18.8,13.9,44.8,14,64.1,1.2c-3.8-2.2-7.5-4.3-11.3-6.5c0,29.9,0,59.8,0,89.7c0,47.2,0,94.4,0,141.7
				c0,10.9,0,21.7,0,32.6c0,4.1,3.4,7.5,7.5,7.5c33.1,0,66.3,0,99.4,0c52.6,0,105.1,0,157.7,0c12,0,24.1,0,36.1,0
				c4.1,0,7.5-3.4,7.5-7.5c0-29.9,0-59.8,0-89.7c0-47.2,0-94.4,0-141.7c0-10.9,0-21.7,0-32.6c-3.8,2.2-7.5,4.3-11.3,6.5
				c21.4,14.3,50.3,12,69.3-5.4c12.3-11.2,17.4-28.6,23.7-43.5c2.7-6.3,5.3-12.5,8-18.8c1.6-3.8,1.1-8-2.7-10.3
				C494,137.9,488.4,138.7,486.8,142.4z"/><g><path fill="#F7941E" d="M356.6,36.8C355.2,106,310.7,164.7,256,164.7S156.8,106,155.4,36.8C222.5,65.9,289.5,65.9,356.6,36.8z"/><path d="M349.1,36.8c-1.1,43.6-20.7,92.6-61.8,113c-17.7,8.8-38.1,9.6-56.6,2.6c-18.9-7.1-34.3-22.2-45.1-38.9
			c-14.7-22.8-22-49.7-22.7-76.7c-3.8,2.2-7.5,4.3-11.3,6.5c33.1,14.2,68.2,22.8,104.4,22.8c36.1,0,71.3-8.6,104.4-22.8
			c3.8-1.6,4.5-7.1,2.7-10.3c-2.2-3.9-6.6-4.3-10.3-2.7c-30.6,13.1-63.5,20.8-96.8,20.7c-33.3,0-66.2-7.6-96.8-20.7
			c-4.9-2.1-11.4,0.2-11.3,6.5c1.2,49.1,24,104.7,70.9,126.7c20.6,9.7,44.3,11.5,65.9,3.6c22.6-8.3,40.8-24.9,53.9-44.8
			c16.6-25.2,24.7-55.4,25.5-85.4C364.3,27.2,349.3,27.2,349.1,36.8z"/></g></svg>